<?xml version="1.0" encoding="UTF-8"?>
<svg version="1.1" xmlns="http://www.w3.org/2000/svg" width="251" height="290">
<path d="M0 0 C82.83 0 165.66 0 251 0 C251 95.7 251 191.4 251 290 C168.17 290 85.34 290 0 290 C0 194.3 0 98.6 0 0 Z " fill="#F5F5F5" transform="translate(0,0)"/>
<path d="M0 0 C82.83 0 165.66 0 251 0 C251 95.7 251 191.4 251 290 C168.17 290 85.34 290 0 290 C0 194.3 0 98.6 0 0 Z M32 19 C32 22.96 32 26.92 32 31 C29.36 31 26.72 31 24 31 C23.89154969 33.56364483 23.81250256 36.12266279 23.75 38.6875 C23.71648438 39.40873047 23.68296875 40.12996094 23.6484375 40.87304688 C23.57862668 44.69518943 23.75681003 46.5927106 25.765625 49.95703125 C28.01762085 52.3413225 28.01762085 52.3413225 32 53 C32 99.2 32 145.4 32 193 C29.525 193.99 29.525 193.99 27 195 C12.58750542 214.21665944 24 242.9791757 24 267 C90 267 156 267 224 267 C229.61185782 227.82990445 229.61185782 227.82990445 220 194 C217.87053397 193.13034494 217.87053397 193.13034494 216 193 C215.96707514 174.84971532 215.97405855 156.69990483 216.02846622 138.54967308 C216.05280015 130.12203287 216.06410698 121.69475216 216.04467773 113.26708984 C216.0277749 105.92091843 216.03538427 98.57524984 216.07234758 91.22914469 C216.09106391 87.33974832 216.09755977 83.4512022 216.07469368 79.56180954 C216.05354675 75.89892512 216.06523615 72.23759658 216.10184479 68.57484818 C216.11317717 66.59359552 216.08993404 64.61223911 216.06559753 62.63110352 C216.19653756 54.0195486 216.19653756 54.0195486 218.59336662 50.97810745 C220.51268005 49.40957642 220.51268005 49.40957642 222.43315792 48.23575783 C224.19175612 47.10029412 224.19175612 47.10029412 224.56402683 44.93948936 C224.69054954 42.79623353 224.61352476 40.76437788 224.4375 38.625 C224.39012695 37.52091797 224.39012695 37.52091797 224.34179688 36.39453125 C224.25998213 34.59460688 224.13443695 32.79676045 224 31 C221.36 31 218.72 31 216 31 C216 27.04 216 23.08 216 19 C155.28 19 94.56 19 32 19 Z " fill="#FBFBFB" transform="translate(0,0)"/>
<path d="M0 0 C60.72 0 121.44 0 184 0 C184 3.96 184 7.92 184 12 C186.64 12 189.28 12 192 12 C192.19043729 14.54520947 192.32813248 17.07606724 192.4375 19.625 C192.52547852 20.69427734 192.52547852 20.69427734 192.61523438 21.78515625 C192.68807841 24.05372764 192.60050426 25.80622953 192 28 C190.43315792 29.23575783 190.43315792 29.23575783 188.51268005 30.40957642 C185.98536069 32.47499148 185.10388534 33.5626817 184.34100533 36.77412033 C184.09730131 40.37568063 184.06918306 43.92298644 184.11352539 47.53271484 C184.10563093 48.912913 184.094666 50.29309649 184.08087158 51.67324829 C184.05219776 55.40872996 184.06635211 59.1429555 184.08831334 62.87843657 C184.10396639 66.78629319 184.08007243 70.69390534 184.06040955 74.60171509 C184.02919149 81.99651435 184.03343598 89.39084922 184.05048412 96.78567755 C184.06816638 105.20654947 184.04621969 113.62717307 184.02097714 122.04800868 C183.969952 139.36543937 183.96858587 156.68252667 184 174 C185.1446875 174.37125 185.1446875 174.37125 186.3125 174.75 C189 176 189 176 192 180 C192 202.44 192 224.88 192 248 C126 248 60 248 -8 248 C-8 180 -8 180 -4 175 C-2.68 174.67 -1.36 174.34 0 174 C0 127.8 0 81.6 0 34 C-1.32 33.67 -2.64 33.34 -4 33 C-6.30437484 30.8930279 -7.79580096 29.23946283 -8.31445312 26.09130859 C-8.39315847 23.94255167 -8.34980396 21.83520455 -8.25 19.6875 C-8.23195313 18.94693359 -8.21390625 18.20636719 -8.1953125 17.44335938 C-8.14847337 15.6283429 -8.07673789 13.81399834 -8 12 C-5.36 12 -2.72 12 0 12 C0 8.04 0 4.08 0 0 Z M8 8 C8 11.96 8 15.92 8 20 C5.36 20 2.72 20 0 20 C-0.16681109 22.91652174 -0.16681109 22.91652174 0 26 C0.66 26.66 1.32 27.32 2 28 C3.98 28 5.96 28 8 28 C8 78.16 8 128.32 8 180 C6.02 180 4.04 180 2 180 C-0.27121709 183.40682564 -0.24468887 184.57797184 -0.22705078 188.57299805 C-0.22689972 189.71395432 -0.22674866 190.85491058 -0.22659302 192.03044128 C-0.21627045 193.26176285 -0.20594788 194.49308441 -0.1953125 195.76171875 C-0.1924826 197.02264847 -0.18965271 198.28357819 -0.18673706 199.5827179 C-0.17743125 202.93160422 -0.15946703 206.28021791 -0.1373291 209.62902832 C-0.11685386 213.04758304 -0.10762214 216.46616677 -0.09765625 219.88476562 C-0.0772818 226.58999737 -0.03813412 233.29475142 0 240 C18.48 240 36.96 240 56 240 C56 224.16 56 208.32 56 192 C79.76 192 103.52 192 128 192 C128 207.84 128 223.68 128 240 C146.48 240 164.96 240 184 240 C184.04191249 232.47903637 184.08198569 224.95849437 184.10350037 217.43751526 C184.11407191 213.93534359 184.12820422 210.43326835 184.15087891 206.93115234 C184.17671953 202.91502944 184.18646466 198.89900903 184.1953125 194.8828125 C184.20563507 193.62445587 184.21595764 192.36609924 184.22659302 191.0696106 C184.22681961 189.32803177 184.22681961 189.32803177 184.22705078 187.55126953 C184.231492 186.52534698 184.23593323 185.49942444 184.24050903 184.44241333 C184.24303671 181.82009789 184.24303671 181.82009789 182 180 C180.02 180 178.04 180 176 180 C176 129.84 176 79.68 176 28 C177.98 28 179.96 28 182 28 C184.34973818 26.10244856 184.34973818 26.10244856 184.125 22.875 C184.08375 21.92625 184.0425 20.9775 184 20 C181.36 20 178.72 20 176 20 C176 16.04 176 12.08 176 8 C120.56 8 65.12 8 8 8 Z " fill="#0D0D0D" transform="translate(32,19)"/>
<path d="M0 0 C7.92 0 15.84 0 24 0 C24 13.2 24 26.4 24 40 C16.08 40 8.16 40 0 40 C0 26.8 0 13.6 0 0 Z " fill="#F4F4F4" transform="translate(128,219)"/>
<path d="M0 0 C7.92 0 15.84 0 24 0 C24 13.2 24 26.4 24 40 C16.08 40 8.16 40 0 40 C0 26.8 0 13.6 0 0 Z " fill="#F4F4F4" transform="translate(96,219)"/>
<path d="M0 0 C7.92 0 15.84 0 24 0 C24 10.56 24 21.12 24 32 C16.08 32 8.16 32 0 32 C0 21.44 0 10.88 0 0 Z " fill="#0E0E0E" transform="translate(172,211)"/>
<path d="M0 0 C7.92 0 15.84 0 24 0 C24 10.56 24 21.12 24 32 C16.08 32 8.16 32 0 32 C0 21.44 0 10.88 0 0 Z " fill="#0E0E0E" transform="translate(52,211)"/>
<path d="M0 0 C7.92 0 15.84 0 24 0 C24 7.92 24 15.84 24 24 C16.08 24 8.16 24 0 24 C0 16.08 0 8.16 0 0 Z " fill="#101010" transform="translate(172,151)"/>
<path d="M0 0 C7.92 0 15.84 0 24 0 C24 7.92 24 15.84 24 24 C16.08 24 8.16 24 0 24 C0 16.08 0 8.16 0 0 Z " fill="#101010" transform="translate(132,151)"/>
<path d="M0 0 C7.92 0 15.84 0 24 0 C24 7.92 24 15.84 24 24 C16.08 24 8.16 24 0 24 C0 16.08 0 8.16 0 0 Z " fill="#101010" transform="translate(92,151)"/>
<path d="M0 0 C7.92 0 15.84 0 24 0 C24 7.92 24 15.84 24 24 C16.08 24 8.16 24 0 24 C0 16.08 0 8.16 0 0 Z " fill="#101010" transform="translate(52,151)"/>
<path d="M0 0 C7.92 0 15.84 0 24 0 C24 7.92 24 15.84 24 24 C16.08 24 8.16 24 0 24 C0 16.08 0 8.16 0 0 Z " fill="#101010" transform="translate(172,111)"/>
<path d="M0 0 C7.92 0 15.84 0 24 0 C24 7.92 24 15.84 24 24 C16.08 24 8.16 24 0 24 C0 16.08 0 8.16 0 0 Z " fill="#101010" transform="translate(132,111)"/>
<path d="M0 0 C7.92 0 15.84 0 24 0 C24 7.92 24 15.84 24 24 C16.08 24 8.16 24 0 24 C0 16.08 0 8.16 0 0 Z " fill="#101010" transform="translate(92,111)"/>
<path d="M0 0 C7.92 0 15.84 0 24 0 C24 7.92 24 15.84 24 24 C16.08 24 8.16 24 0 24 C0 16.08 0 8.16 0 0 Z " fill="#101010" transform="translate(52,111)"/>
<path d="M0 0 C7.92 0 15.84 0 24 0 C24 7.92 24 15.84 24 24 C16.08 24 8.16 24 0 24 C0 16.08 0 8.16 0 0 Z " fill="#101010" transform="translate(172,71)"/>
<path d="M0 0 C7.92 0 15.84 0 24 0 C24 7.92 24 15.84 24 24 C16.08 24 8.16 24 0 24 C0 16.08 0 8.16 0 0 Z " fill="#101010" transform="translate(132,71)"/>
<path d="M0 0 C7.92 0 15.84 0 24 0 C24 7.92 24 15.84 24 24 C16.08 24 8.16 24 0 24 C0 16.08 0 8.16 0 0 Z " fill="#101010" transform="translate(92,71)"/>
<path d="M0 0 C7.92 0 15.84 0 24 0 C24 7.92 24 15.84 24 24 C16.08 24 8.16 24 0 24 C0 16.08 0 8.16 0 0 Z " fill="#101010" transform="translate(52,71)"/>
<path d="M0 0 C0.66 0 1.32 0 2 0 C0.66666667 2.66666667 -0.66666667 5.33333333 -2 8 C-2.33 29.12 -2.66 50.24 -3 72 C62.67 72 128.34 72 196 72 C196 72.33 196 72.66 196 73 C130 73 64 73 -4 73 C-4 5 -4 5 0 0 Z " fill="#3B3B3B" transform="translate(28,194)"/>
<path d="M0 0 C0.66 0 1.32 0 2 0 C1.67 0.99 1.34 1.98 1 3 C0.89757923 4.86452639 0.85365364 6.73247764 0.84178162 8.59977722 C0.8319928 9.76505447 0.82220398 10.93033173 0.81211853 12.13092041 C0.80636307 13.4105365 0.8006076 14.69015259 0.79467773 16.00854492 C0.78509833 17.36857907 0.77508821 18.72861025 0.76467896 20.08863831 C0.73763053 23.78253871 0.71662063 27.47645189 0.69667697 31.17039657 C0.67481704 35.03015076 0.64742838 38.88986558 0.62062073 42.74958801 C0.57069394 50.05932222 0.52575505 57.36907827 0.48259836 64.67885524 C0.43322588 73.00043694 0.37830779 81.32197913 0.32291877 89.64352262 C0.20909893 106.7623119 0.10225989 123.88113785 0 141 C-0.33 141 -0.66 141 -1 141 C-1.02332809 122.76354002 -1.04097873 104.52708389 -1.05181217 86.29061222 C-1.05697532 77.82370061 -1.06401838 69.35679825 -1.07543945 60.88989258 C-1.08538572 53.51282906 -1.09185329 46.13577225 -1.09408849 38.75870222 C-1.0953957 34.85017947 -1.09848217 30.94167588 -1.10573006 27.03315926 C-1.11248937 23.35853558 -1.11461715 19.68393907 -1.11310768 16.00930977 C-1.11351638 14.00920389 -1.11891204 12.00910102 -1.12442017 10.00900269 C-1.1230455 8.82964645 -1.12167084 7.65029022 -1.12025452 6.43519592 C-1.12117631 5.40370957 -1.1220981 4.37222322 -1.12304783 3.30947971 C-1 1 -1 1 0 0 Z " fill="#B2B2B2" transform="translate(217,52)"/>
<path d="M0 0 C2.64 0 5.28 0 8 0 C8 5.28 8 10.56 8 16 C5.36 16 2.72 16 0 16 C0 10.72 0 5.44 0 0 Z " fill="#E5E5E5" transform="translate(180,219)"/>
<path d="M0 0 C2.64 0 5.28 0 8 0 C8 5.28 8 10.56 8 16 C5.36 16 2.72 16 0 16 C0 10.72 0 5.44 0 0 Z " fill="#E5E5E5" transform="translate(60,219)"/>
<path d="M0 0 C-2 4 -2 4 -3.05038452 5.74505615 C-4.29367802 8.69736378 -4.28102816 11.12705109 -4.31884766 14.32910156 C-4.33871735 15.61012756 -4.35858704 16.89115356 -4.37905884 18.21099854 C-4.39093436 19.6042056 -4.40259727 20.9974145 -4.4140625 22.390625 C-4.43277832 23.8198152 -4.45235205 25.24899441 -4.4727478 26.67816162 C-4.52403148 30.43291736 -4.56367716 34.18770892 -4.60089111 37.94262695 C-4.64095449 41.7769453 -4.69203615 45.61111517 -4.7421875 49.4453125 C-4.83890215 56.96343972 -4.92332101 64.4816389 -5 72 C-5.33 72 -5.66 72 -6 72 C-6.0927549 63.35071089 -6.16379244 54.70159346 -6.20724869 46.05191517 C-6.22810753 42.03532635 -6.25639332 38.01907827 -6.30175781 34.00268555 C-6.34527746 30.12528328 -6.36914992 26.24820836 -6.37950897 22.37058067 C-6.38688947 20.89259374 -6.40130214 19.41462437 -6.42292023 17.93677711 C-6.45203761 15.86346609 -6.45595283 13.79150077 -6.45410156 11.71801758 C-6.46298401 10.53887283 -6.47186646 9.35972809 -6.48101807 8.14485168 C-5.90668319 4.3899033 -4.35865925 0 0 0 Z " fill="#191919" transform="translate(30,194)"/>
<path d="M0 0 C2.64 0 5.28 0 8 0 C8 2.64 8 5.28 8 8 C5.36 8 2.72 8 0 8 C0 5.36 0 2.72 0 0 Z " fill="#DFDFDF" transform="translate(180,159)"/>
<path d="M0 0 C2.64 0 5.28 0 8 0 C8 2.64 8 5.28 8 8 C5.36 8 2.72 8 0 8 C0 5.36 0 2.72 0 0 Z " fill="#DFDFDF" transform="translate(140,159)"/>
<path d="M0 0 C2.64 0 5.28 0 8 0 C8 2.64 8 5.28 8 8 C5.36 8 2.72 8 0 8 C0 5.36 0 2.72 0 0 Z " fill="#DFDFDF" transform="translate(100,159)"/>
<path d="M0 0 C2.64 0 5.28 0 8 0 C8 2.64 8 5.28 8 8 C5.36 8 2.72 8 0 8 C0 5.36 0 2.72 0 0 Z " fill="#DFDFDF" transform="translate(60,159)"/>
<path d="M0 0 C2.64 0 5.28 0 8 0 C8 2.64 8 5.28 8 8 C5.36 8 2.72 8 0 8 C0 5.36 0 2.72 0 0 Z " fill="#DFDFDF" transform="translate(180,119)"/>
<path d="M0 0 C2.64 0 5.28 0 8 0 C8 2.64 8 5.28 8 8 C5.36 8 2.72 8 0 8 C0 5.36 0 2.72 0 0 Z " fill="#DFDFDF" transform="translate(140,119)"/>
<path d="M0 0 C2.64 0 5.28 0 8 0 C8 2.64 8 5.28 8 8 C5.36 8 2.72 8 0 8 C0 5.36 0 2.72 0 0 Z " fill="#DFDFDF" transform="translate(100,119)"/>
<path d="M0 0 C2.64 0 5.28 0 8 0 C8 2.64 8 5.28 8 8 C5.36 8 2.72 8 0 8 C0 5.36 0 2.72 0 0 Z " fill="#DFDFDF" transform="translate(60,119)"/>
<path d="M0 0 C2.64 0 5.28 0 8 0 C8 2.64 8 5.28 8 8 C5.36 8 2.72 8 0 8 C0 5.36 0 2.72 0 0 Z " fill="#DFDFDF" transform="translate(180,79)"/>
<path d="M0 0 C2.64 0 5.28 0 8 0 C8 2.64 8 5.28 8 8 C5.36 8 2.72 8 0 8 C0 5.36 0 2.72 0 0 Z " fill="#DFDFDF" transform="translate(140,79)"/>
<path d="M0 0 C2.64 0 5.28 0 8 0 C8 2.64 8 5.28 8 8 C5.36 8 2.72 8 0 8 C0 5.36 0 2.72 0 0 Z " fill="#DFDFDF" transform="translate(100,79)"/>
<path d="M0 0 C2.64 0 5.28 0 8 0 C8 2.64 8 5.28 8 8 C5.36 8 2.72 8 0 8 C0 5.36 0 2.72 0 0 Z " fill="#DFDFDF" transform="translate(60,79)"/>
<path d="M0 0 C2.625 0.375 2.625 0.375 5 1 C5.625 3.375 5.625 3.375 6 6 C5.34 6.66 4.68 7.32 4 8 C1.375 7.625 1.375 7.625 -1 7 C-1.625 4.625 -1.625 4.625 -2 2 C-1.34 1.34 -0.68 0.68 0 0 Z " fill="#252525" transform="translate(194,191)"/>
<path d="M0 0 C2.625 0.375 2.625 0.375 5 1 C5.625 3.375 5.625 3.375 6 6 C5.34 6.66 4.68 7.32 4 8 C1.375 7.625 1.375 7.625 -1 7 C-1.625 4.625 -1.625 4.625 -2 2 C-1.34 1.34 -0.68 0.68 0 0 Z " fill="#252525" transform="translate(178,191)"/>
<path d="M0 0 C2.625 0.375 2.625 0.375 5 1 C5.625 3.375 5.625 3.375 6 6 C5.34 6.66 4.68 7.32 4 8 C1.375 7.625 1.375 7.625 -1 7 C-1.625 4.625 -1.625 4.625 -2 2 C-1.34 1.34 -0.68 0.68 0 0 Z " fill="#252525" transform="translate(130,191)"/>
<path d="M0 0 C2.625 0.375 2.625 0.375 5 1 C5.625 3.375 5.625 3.375 6 6 C5.34 6.66 4.68 7.32 4 8 C1.375 7.625 1.375 7.625 -1 7 C-1.625 4.625 -1.625 4.625 -2 2 C-1.34 1.34 -0.68 0.68 0 0 Z " fill="#252525" transform="translate(114,191)"/>
<path d="M0 0 C2.625 0.375 2.625 0.375 5 1 C5.625 3.375 5.625 3.375 6 6 C5.34 6.66 4.68 7.32 4 8 C1.375 7.625 1.375 7.625 -1 7 C-1.625 4.625 -1.625 4.625 -2 2 C-1.34 1.34 -0.68 0.68 0 0 Z " fill="#252525" transform="translate(98,191)"/>
<path d="M0 0 C2.625 0.375 2.625 0.375 5 1 C5.625 3.375 5.625 3.375 6 6 C5.34 6.66 4.68 7.32 4 8 C1.375 7.625 1.375 7.625 -1 7 C-1.625 4.625 -1.625 4.625 -2 2 C-1.34 1.34 -0.68 0.68 0 0 Z " fill="#252525" transform="translate(50,191)"/>
<path d="M0 0 C2.625 0.375 2.625 0.375 5 1 C5.625 3.375 5.625 3.375 6 6 C5.34 6.66 4.68 7.32 4 8 C1.375 7.625 1.375 7.625 -1 7 C-1.625 4.625 -1.625 4.625 -2 2 C-1.34 1.34 -0.68 0.68 0 0 Z " fill="#252525" transform="translate(194,47)"/>
<path d="M0 0 C2.625 0.375 2.625 0.375 5 1 C5.625 3.375 5.625 3.375 6 6 C5.34 6.66 4.68 7.32 4 8 C1.375 7.625 1.375 7.625 -1 7 C-1.625 4.625 -1.625 4.625 -2 2 C-1.34 1.34 -0.68 0.68 0 0 Z " fill="#252525" transform="translate(114,47)"/>
<path d="M0 0 C0.38218767 1.65614657 0.71395102 3.32457024 1 5 C0 6 0 6 -3 6.125 C-6 6 -6 6 -7 5 C-7.04063832 3.33382885 -7.042721 1.66611905 -7 0 C-4.3333581 -1.33332095 -2.83319697 -0.67102033 0 0 Z " fill="#222222" transform="translate(167,48)"/>
<path d="M0 0 C0.38218767 1.65614657 0.71395102 3.32457024 1 5 C0 6 0 6 -3 6.125 C-6 6 -6 6 -7 5 C-7.04063832 3.33382885 -7.042721 1.66611905 -7 0 C-4.3333581 -1.33332095 -2.83319697 -0.67102033 0 0 Z " fill="#222222" transform="translate(87,48)"/>
<path d="M0 0 C0.38218767 1.65614657 0.71395102 3.32457024 1 5 C0 6 0 6 -3 6.125 C-6 6 -6 6 -7 5 C-7.04063832 3.33382885 -7.042721 1.66611905 -7 0 C-4.3333581 -1.33332095 -2.83319697 -0.67102033 0 0 Z " fill="#3B3B3B" transform="translate(183,48)"/>
<path d="M0 0 C0.38218767 1.65614657 0.71395102 3.32457024 1 5 C0 6 0 6 -3 6.125 C-6 6 -6 6 -7 5 C-7.04063832 3.33382885 -7.042721 1.66611905 -7 0 C-4.3333581 -1.33332095 -2.83319697 -0.67102033 0 0 Z " fill="#3B3B3B" transform="translate(103,48)"/>
<path d="M0 0 C1.4540625 0.0309375 1.4540625 0.0309375 2.9375 0.0625 C3.5625 2.4375 3.5625 2.4375 3.9375 5.0625 C3.2775 5.7225 2.6175 6.3825 1.9375 7.0625 C-0.6875 6.6875 -0.6875 6.6875 -3.0625 6.0625 C-3.44468767 4.40635343 -3.77645102 2.73792976 -4.0625 1.0625 C-3.0625 0.0625 -3.0625 0.0625 0 0 Z " fill="#1F1F1F" transform="translate(164.0625,191.9375)"/>
<path d="M0 0 C1.4540625 0.0309375 1.4540625 0.0309375 2.9375 0.0625 C3.5625 2.4375 3.5625 2.4375 3.9375 5.0625 C3.2775 5.7225 2.6175 6.3825 1.9375 7.0625 C-0.6875 6.6875 -0.6875 6.6875 -3.0625 6.0625 C-3.44468767 4.40635343 -3.77645102 2.73792976 -4.0625 1.0625 C-3.0625 0.0625 -3.0625 0.0625 0 0 Z " fill="#1F1F1F" transform="translate(84.0625,191.9375)"/>
<path d="M0 0 C2.625 0.375 2.625 0.375 5 1 C5.38218767 2.65614657 5.71395102 4.32457024 6 6 C5 7 5 7 1.9375 7.0625 C0.968125 7.041875 -0.00125 7.02125 -1 7 C-1.625 4.625 -1.625 4.625 -2 2 C-1.34 1.34 -0.68 0.68 0 0 Z " fill="#1F1F1F" transform="translate(146,47)"/>
<path d="M0 0 C2.625 0.375 2.625 0.375 5 1 C5.38218767 2.65614657 5.71395102 4.32457024 6 6 C5 7 5 7 1.9375 7.0625 C0.968125 7.041875 -0.00125 7.02125 -1 7 C-1.625 4.625 -1.625 4.625 -2 2 C-1.34 1.34 -0.68 0.68 0 0 Z " fill="#1F1F1F" transform="translate(66,47)"/>
<path d="M0 0 C1.98 0 3.96 0 6 0 C6 1.98 6 3.96 6 6 C3.625 6.625 3.625 6.625 1 7 C0.34 6.34 -0.32 5.68 -1 5 C-0.625 2.375 -0.625 2.375 0 0 Z " fill="#191919" transform="translate(145,192)"/>
<path d="M0 0 C1.98 0 3.96 0 6 0 C6 1.98 6 3.96 6 6 C3.625 6.625 3.625 6.625 1 7 C0.34 6.34 -0.32 5.68 -1 5 C-0.625 2.375 -0.625 2.375 0 0 Z " fill="#191919" transform="translate(65,192)"/>
<path d="M0 0 C2.625 0.375 2.625 0.375 5 1 C5 2.98 5 4.96 5 7 C3.02 7 1.04 7 -1 7 C-1.625 4.625 -1.625 4.625 -2 2 C-1.34 1.34 -0.68 0.68 0 0 Z " fill="#191919" transform="translate(130,47)"/>
<path d="M0 0 C2.625 0.375 2.625 0.375 5 1 C5 2.98 5 4.96 5 7 C3.02 7 1.04 7 -1 7 C-1.625 4.625 -1.625 4.625 -2 2 C-1.34 1.34 -0.68 0.68 0 0 Z " fill="#191919" transform="translate(50,47)"/>
<path d="M0 0 C0.99 0 1.98 0 3 0 C3 1.65 3 3.3 3 5 C1.35 5 -0.3 5 -2 5 C-1.125 1.125 -1.125 1.125 0 0 Z " fill="#040404" transform="translate(179,49)"/>
<path d="M0 0 C0.99 0 1.98 0 3 0 C3 1.65 3 3.3 3 5 C1.35 5 -0.3 5 -2 5 C-1.125 1.125 -1.125 1.125 0 0 Z " fill="#040404" transform="translate(99,49)"/>
<path d="M0 0 C0.66 0 1.32 0 2 0 C0.50163895 3.11198065 -1.19933758 6.0534615 -3 9 C-3.75 7.3125 -3.75 7.3125 -4 5 C-2.1875 2.25 -2.1875 2.25 0 0 Z " fill="#3B3B3B" transform="translate(28,194)"/>
</svg>
